<mxfile host="Electron" agent="Mozilla/5.0 (Windows NT 10.0; Win64; x64) AppleWebKit/537.36 (KHTML, like Gecko) draw.io/24.7.8 Chrome/128.0.6613.36 Electron/32.0.1 Safari/537.36" version="24.7.8" pages="3">
  <diagram id="hQALo9qd5UZZ_pnn8Rl8" name="Page-1">
    <mxGraphModel dx="1167" dy="699" grid="1" gridSize="10" guides="1" tooltips="1" connect="1" arrows="1" fold="1" page="1" pageScale="1" pageWidth="827" pageHeight="1169" math="0" shadow="0">
      <root>
        <mxCell id="0" />
        <mxCell id="1" parent="0" />
        <mxCell id="6cccSP1-q7xdnucY7174-1" value="" style="ellipse;html=1;shape=endState;fillColor=#000000;strokeColor=#ff0000;" vertex="1" parent="1">
          <mxGeometry x="390" y="810" width="30" height="30" as="geometry" />
        </mxCell>
        <mxCell id="6cccSP1-q7xdnucY7174-2" value="" style="ellipse;html=1;shape=endState;fillColor=#000000;strokeColor=#ff0000;" vertex="1" parent="1">
          <mxGeometry x="355" y="130" width="30" height="30" as="geometry" />
        </mxCell>
        <mxCell id="6cccSP1-q7xdnucY7174-10" value="&lt;span style=&quot;font-size: 20px;&quot;&gt;Sent&lt;/span&gt;" style="rounded=1;whiteSpace=wrap;html=1;fillColor=#fff2cc;strokeColor=#d6b656;gradientColor=#ffd966;" vertex="1" parent="1">
          <mxGeometry x="650" y="200" width="120" height="60" as="geometry" />
        </mxCell>
        <mxCell id="6cccSP1-q7xdnucY7174-11" value="&lt;span style=&quot;font-size: 20px;&quot;&gt;Read&lt;/span&gt;" style="rounded=1;whiteSpace=wrap;html=1;fillColor=#fff2cc;strokeColor=#d6b656;gradientColor=#ffd966;" vertex="1" parent="1">
          <mxGeometry x="480" y="340" width="120" height="60" as="geometry" />
        </mxCell>
        <mxCell id="6cccSP1-q7xdnucY7174-12" value="&lt;span style=&quot;font-size: 20px;&quot;&gt;Draft&lt;/span&gt;" style="rounded=1;whiteSpace=wrap;html=1;fillColor=#fff2cc;strokeColor=#d6b656;gradientColor=#ffd966;" vertex="1" parent="1">
          <mxGeometry x="310" y="220" width="120" height="60" as="geometry" />
        </mxCell>
        <mxCell id="6cccSP1-q7xdnucY7174-13" value="&lt;span style=&quot;font-size: 20px;&quot;&gt;Deleted&lt;/span&gt;" style="rounded=1;whiteSpace=wrap;html=1;fillColor=#fff2cc;strokeColor=#d6b656;gradientColor=#ffd966;" vertex="1" parent="1">
          <mxGeometry x="270" y="650" width="120" height="60" as="geometry" />
        </mxCell>
        <mxCell id="6cccSP1-q7xdnucY7174-14" value="&lt;span style=&quot;font-size: 20px;&quot;&gt;Edited&lt;/span&gt;" style="rounded=1;whiteSpace=wrap;html=1;fillColor=#fff2cc;strokeColor=#d6b656;gradientColor=#ffd966;" vertex="1" parent="1">
          <mxGeometry x="170" y="410" width="120" height="60" as="geometry" />
        </mxCell>
        <mxCell id="6cccSP1-q7xdnucY7174-15" value="&lt;span style=&quot;font-size: 20px;&quot;&gt;Delivered&lt;/span&gt;" style="rounded=1;whiteSpace=wrap;html=1;fillColor=#fff2cc;strokeColor=#d6b656;gradientColor=#ffd966;" vertex="1" parent="1">
          <mxGeometry x="620" y="590" width="120" height="60" as="geometry" />
        </mxCell>
        <mxCell id="6cccSP1-q7xdnucY7174-16" value="" style="endArrow=classic;html=1;rounded=0;exitX=0.5;exitY=1;exitDx=0;exitDy=0;" edge="1" parent="1" source="6cccSP1-q7xdnucY7174-2" target="6cccSP1-q7xdnucY7174-12">
          <mxGeometry width="50" height="50" relative="1" as="geometry">
            <mxPoint x="530" y="450" as="sourcePoint" />
            <mxPoint x="580" y="400" as="targetPoint" />
            <Array as="points" />
          </mxGeometry>
        </mxCell>
        <mxCell id="6cccSP1-q7xdnucY7174-17" value="" style="endArrow=classic;html=1;rounded=0;entryX=0;entryY=0.75;entryDx=0;entryDy=0;" edge="1" parent="1" target="6cccSP1-q7xdnucY7174-10">
          <mxGeometry width="50" height="50" relative="1" as="geometry">
            <mxPoint x="430" y="250" as="sourcePoint" />
            <mxPoint x="480" y="200" as="targetPoint" />
          </mxGeometry>
        </mxCell>
        <mxCell id="6cccSP1-q7xdnucY7174-18" value="&lt;font style=&quot;font-size: 13px;&quot;&gt;&lt;b&gt;User Sends Message&lt;/b&gt;&lt;/font&gt;" style="edgeLabel;html=1;align=center;verticalAlign=middle;resizable=0;points=[];" vertex="1" connectable="0" parent="6cccSP1-q7xdnucY7174-17">
          <mxGeometry x="-0.0036" relative="1" as="geometry">
            <mxPoint x="1" y="2" as="offset" />
          </mxGeometry>
        </mxCell>
        <mxCell id="6cccSP1-q7xdnucY7174-20" value="dispatch" style="html=1;verticalAlign=middle;endArrow=block;curved=0;rounded=0;exitX=0.5;exitY=1;exitDx=0;exitDy=0;horizontal=0;" edge="1" parent="1" source="6cccSP1-q7xdnucY7174-10">
          <mxGeometry width="80" relative="1" as="geometry">
            <mxPoint x="700" y="320" as="sourcePoint" />
            <mxPoint x="710" y="590" as="targetPoint" />
          </mxGeometry>
        </mxCell>
        <mxCell id="6cccSP1-q7xdnucY7174-21" value="&lt;font style=&quot;font-size: 16px;&quot;&gt;&lt;b&gt;Recipient Client Receives Message&lt;/b&gt;&lt;/font&gt;" style="edgeLabel;html=1;align=center;verticalAlign=middle;resizable=0;points=[];rotation=90;" vertex="1" connectable="0" parent="6cccSP1-q7xdnucY7174-20">
          <mxGeometry x="0.0629" y="-4" relative="1" as="geometry">
            <mxPoint x="4" y="-25" as="offset" />
          </mxGeometry>
        </mxCell>
        <mxCell id="6cccSP1-q7xdnucY7174-22" value="&lt;font style=&quot;font-size: 15px;&quot;&gt;&lt;b&gt;Recipient Views Message&lt;/b&gt;&lt;/font&gt;" style="html=1;verticalAlign=bottom;endArrow=block;rounded=0;edgeStyle=orthogonalEdgeStyle;horizontal=0;entryX=0.5;entryY=1;entryDx=0;entryDy=0;" edge="1" parent="1" target="6cccSP1-q7xdnucY7174-11">
          <mxGeometry x="0.3159" y="-10" width="80" relative="1" as="geometry">
            <mxPoint x="620" y="640" as="sourcePoint" />
            <mxPoint x="540" y="420" as="targetPoint" />
            <Array as="points">
              <mxPoint x="540" y="640" />
            </Array>
            <mxPoint as="offset" />
          </mxGeometry>
        </mxCell>
        <mxCell id="6cccSP1-q7xdnucY7174-23" value="" style="html=1;verticalAlign=bottom;endArrow=block;rounded=0;edgeStyle=orthogonalEdgeStyle;exitX=0.25;exitY=1;exitDx=0;exitDy=0;" edge="1" parent="1" source="6cccSP1-q7xdnucY7174-10">
          <mxGeometry width="80" relative="1" as="geometry">
            <mxPoint x="690" y="341" as="sourcePoint" />
            <mxPoint x="250" y="410" as="targetPoint" />
            <Array as="points">
              <mxPoint x="680" y="320" />
              <mxPoint x="250" y="320" />
            </Array>
          </mxGeometry>
        </mxCell>
        <mxCell id="6cccSP1-q7xdnucY7174-25" value="&lt;font style=&quot;font-size: 14px;&quot;&gt;&lt;b&gt;Sender Edits Message&lt;/b&gt;&lt;/font&gt;" style="edgeLabel;html=1;align=center;verticalAlign=middle;resizable=0;points=[];" vertex="1" connectable="0" parent="6cccSP1-q7xdnucY7174-23">
          <mxGeometry x="-0.0308" y="-2" relative="1" as="geometry">
            <mxPoint as="offset" />
          </mxGeometry>
        </mxCell>
        <mxCell id="6cccSP1-q7xdnucY7174-26" value="" style="html=1;verticalAlign=bottom;endArrow=block;rounded=0;entryX=1;entryY=0.75;entryDx=0;entryDy=0;edgeStyle=orthogonalEdgeStyle;exitX=0.25;exitY=1;exitDx=0;exitDy=0;" edge="1" parent="1" source="6cccSP1-q7xdnucY7174-11" target="6cccSP1-q7xdnucY7174-14">
          <mxGeometry width="80" relative="1" as="geometry">
            <mxPoint x="400" y="450" as="sourcePoint" />
            <mxPoint x="480" y="450" as="targetPoint" />
          </mxGeometry>
        </mxCell>
        <mxCell id="6cccSP1-q7xdnucY7174-27" value="&lt;font style=&quot;font-size: 14px;&quot;&gt;&lt;b&gt;Sender Edits Message&lt;/b&gt;&lt;/font&gt;" style="edgeLabel;html=1;align=center;verticalAlign=middle;resizable=0;points=[];" vertex="1" connectable="0" parent="6cccSP1-q7xdnucY7174-26">
          <mxGeometry x="0.0207" y="1" relative="1" as="geometry">
            <mxPoint x="-15" as="offset" />
          </mxGeometry>
        </mxCell>
        <mxCell id="6cccSP1-q7xdnucY7174-28" value="" style="endArrow=block;endFill=1;html=1;edgeStyle=orthogonalEdgeStyle;align=left;verticalAlign=top;rounded=0;entryX=0.604;entryY=1.028;entryDx=0;entryDy=0;entryPerimeter=0;" edge="1" parent="1" target="6cccSP1-q7xdnucY7174-13">
          <mxGeometry x="-1" relative="1" as="geometry">
            <mxPoint x="760" y="260" as="sourcePoint" />
            <mxPoint x="680" y="500" as="targetPoint" />
            <Array as="points">
              <mxPoint x="760" y="260" />
              <mxPoint x="760" y="290" />
              <mxPoint x="790" y="290" />
              <mxPoint x="790" y="730" />
              <mxPoint x="342" y="730" />
            </Array>
          </mxGeometry>
        </mxCell>
        <mxCell id="6cccSP1-q7xdnucY7174-33" value="&lt;font style=&quot;font-size: 14px;&quot;&gt;&lt;b&gt;Sender Deletes Message&lt;/b&gt;&lt;/font&gt;" style="edgeLabel;html=1;align=center;verticalAlign=middle;resizable=0;points=[];" vertex="1" connectable="0" parent="6cccSP1-q7xdnucY7174-28">
          <mxGeometry x="0.4273" y="3" relative="1" as="geometry">
            <mxPoint as="offset" />
          </mxGeometry>
        </mxCell>
        <mxCell id="6cccSP1-q7xdnucY7174-35" value="" style="html=1;verticalAlign=bottom;endArrow=block;rounded=0;entryX=0.998;entryY=0.634;entryDx=0;entryDy=0;entryPerimeter=0;edgeStyle=orthogonalEdgeStyle;exitX=0.75;exitY=1;exitDx=0;exitDy=0;" edge="1" parent="1" source="6cccSP1-q7xdnucY7174-15" target="6cccSP1-q7xdnucY7174-13">
          <mxGeometry width="80" relative="1" as="geometry">
            <mxPoint x="710" y="660" as="sourcePoint" />
            <mxPoint x="540" y="670" as="targetPoint" />
            <Array as="points">
              <mxPoint x="710" y="688" />
            </Array>
          </mxGeometry>
        </mxCell>
        <mxCell id="6cccSP1-q7xdnucY7174-36" value="&lt;font style=&quot;font-size: 14px;&quot;&gt;&lt;b&gt;Sender Deletes Message&lt;/b&gt;&lt;/font&gt;" style="edgeLabel;html=1;align=center;verticalAlign=middle;resizable=0;points=[];" vertex="1" connectable="0" parent="6cccSP1-q7xdnucY7174-35">
          <mxGeometry x="0.0071" y="3" relative="1" as="geometry">
            <mxPoint as="offset" />
          </mxGeometry>
        </mxCell>
        <mxCell id="6cccSP1-q7xdnucY7174-37" value="" style="html=1;verticalAlign=bottom;endArrow=block;rounded=0;exitX=0.39;exitY=1.013;exitDx=0;exitDy=0;exitPerimeter=0;edgeStyle=orthogonalEdgeStyle;" edge="1" parent="1" source="6cccSP1-q7xdnucY7174-11" target="6cccSP1-q7xdnucY7174-13">
          <mxGeometry width="80" relative="1" as="geometry">
            <mxPoint x="380" y="580" as="sourcePoint" />
            <mxPoint x="460" y="580" as="targetPoint" />
            <Array as="points">
              <mxPoint x="520" y="401" />
              <mxPoint x="520" y="525" />
              <mxPoint x="300" y="525" />
            </Array>
          </mxGeometry>
        </mxCell>
        <mxCell id="6cccSP1-q7xdnucY7174-38" value="&lt;font style=&quot;font-size: 13px;&quot;&gt;&lt;b&gt;Sender Deletes Message :&lt;/b&gt;&lt;/font&gt;" style="edgeLabel;html=1;align=center;verticalAlign=middle;resizable=0;points=[];" vertex="1" connectable="0" parent="6cccSP1-q7xdnucY7174-37">
          <mxGeometry x="-0.006" y="-2" relative="1" as="geometry">
            <mxPoint as="offset" />
          </mxGeometry>
        </mxCell>
        <mxCell id="6cccSP1-q7xdnucY7174-39" value="&lt;font style=&quot;font-size: 13px;&quot;&gt;&lt;b&gt;Sender Deletes Message&lt;/b&gt;&lt;/font&gt;" style="html=1;verticalAlign=bottom;endArrow=block;rounded=0;exitX=0.352;exitY=0.99;exitDx=0;exitDy=0;exitPerimeter=0;entryX=0;entryY=0.5;entryDx=0;entryDy=0;edgeStyle=orthogonalEdgeStyle;horizontal=0;" edge="1" parent="1" source="6cccSP1-q7xdnucY7174-14" target="6cccSP1-q7xdnucY7174-13">
          <mxGeometry x="-0.2505" y="8" width="80" relative="1" as="geometry">
            <mxPoint x="180" y="560" as="sourcePoint" />
            <mxPoint x="260" y="560" as="targetPoint" />
            <Array as="points">
              <mxPoint x="212" y="680" />
            </Array>
            <mxPoint as="offset" />
          </mxGeometry>
        </mxCell>
        <mxCell id="6cccSP1-q7xdnucY7174-40" value="" style="endArrow=classic;html=1;rounded=0;entryX=0;entryY=0.5;entryDx=0;entryDy=0;exitX=0.25;exitY=1;exitDx=0;exitDy=0;edgeStyle=orthogonalEdgeStyle;" edge="1" parent="1" source="6cccSP1-q7xdnucY7174-13" target="6cccSP1-q7xdnucY7174-1">
          <mxGeometry width="50" height="50" relative="1" as="geometry">
            <mxPoint x="340" y="800" as="sourcePoint" />
            <mxPoint x="390" y="750" as="targetPoint" />
          </mxGeometry>
        </mxCell>
      </root>
    </mxGraphModel>
  </diagram>
  <diagram id="KCthkGhR62opzVbG7hkl" name="Page-2">
    <mxGraphModel dx="1578" dy="786" grid="1" gridSize="10" guides="1" tooltips="1" connect="1" arrows="1" fold="1" page="1" pageScale="1" pageWidth="827" pageHeight="1169" math="0" shadow="0">
      <root>
        <mxCell id="0" />
        <mxCell id="1" parent="0" />
        <mxCell id="nFlIX1VMYEds2hBwtuZr-1" value="" style="ellipse;html=1;shape=endState;fillColor=#000000;strokeColor=#ff0000;" vertex="1" parent="1">
          <mxGeometry x="414" y="760" width="30" height="30" as="geometry" />
        </mxCell>
        <mxCell id="nFlIX1VMYEds2hBwtuZr-2" value="" style="ellipse;html=1;shape=endState;fillColor=#000000;strokeColor=#ff0000;" vertex="1" parent="1">
          <mxGeometry x="255" y="120" width="30" height="30" as="geometry" />
        </mxCell>
        <mxCell id="nFlIX1VMYEds2hBwtuZr-3" value="&lt;span style=&quot;font-size: 20px;&quot;&gt;Online&lt;/span&gt;" style="rounded=1;whiteSpace=wrap;html=1;fillColor=#fff2cc;strokeColor=#d6b656;gradientColor=#ffd966;" vertex="1" parent="1">
          <mxGeometry x="650" y="190" width="120" height="70" as="geometry" />
        </mxCell>
        <mxCell id="nFlIX1VMYEds2hBwtuZr-4" value="&lt;span style=&quot;font-size: 20px;&quot;&gt;Typing&lt;/span&gt;" style="rounded=1;whiteSpace=wrap;html=1;fillColor=#fff2cc;strokeColor=#d6b656;gradientColor=#ffd966;" vertex="1" parent="1">
          <mxGeometry x="180" y="490" width="120" height="60" as="geometry" />
        </mxCell>
        <mxCell id="nFlIX1VMYEds2hBwtuZr-5" value="&lt;span style=&quot;font-size: 20px;&quot;&gt;Offline&lt;/span&gt;" style="rounded=1;whiteSpace=wrap;html=1;fillColor=#fff2cc;strokeColor=#d6b656;gradientColor=#ffd966;" vertex="1" parent="1">
          <mxGeometry x="210" y="230" width="120" height="60" as="geometry" />
        </mxCell>
        <mxCell id="nFlIX1VMYEds2hBwtuZr-8" value="&lt;span style=&quot;font-size: 20px;&quot;&gt;Away (Idle)&lt;/span&gt;" style="rounded=1;whiteSpace=wrap;html=1;fillColor=#fff2cc;strokeColor=#d6b656;gradientColor=#ffd966;" vertex="1" parent="1">
          <mxGeometry x="620" y="590" width="120" height="60" as="geometry" />
        </mxCell>
        <mxCell id="nFlIX1VMYEds2hBwtuZr-9" value="" style="endArrow=classic;html=1;rounded=0;exitX=0.5;exitY=1;exitDx=0;exitDy=0;" edge="1" parent="1" source="nFlIX1VMYEds2hBwtuZr-2" target="nFlIX1VMYEds2hBwtuZr-5">
          <mxGeometry width="50" height="50" relative="1" as="geometry">
            <mxPoint x="530" y="450" as="sourcePoint" />
            <mxPoint x="580" y="400" as="targetPoint" />
            <Array as="points" />
          </mxGeometry>
        </mxCell>
        <mxCell id="nFlIX1VMYEds2hBwtuZr-10" value="" style="endArrow=classic;html=1;rounded=0;entryX=0;entryY=0.75;entryDx=0;entryDy=0;exitX=1;exitY=0.25;exitDx=0;exitDy=0;" edge="1" parent="1" target="nFlIX1VMYEds2hBwtuZr-3" source="nFlIX1VMYEds2hBwtuZr-5">
          <mxGeometry width="50" height="50" relative="1" as="geometry">
            <mxPoint x="340" y="250" as="sourcePoint" />
            <mxPoint x="480" y="200" as="targetPoint" />
          </mxGeometry>
        </mxCell>
        <mxCell id="nFlIX1VMYEds2hBwtuZr-11" value="&lt;span style=&quot;font-size: 13px;&quot;&gt;&lt;b&gt;User Logs In / App Opens&lt;/b&gt;&lt;/span&gt;" style="edgeLabel;html=1;align=center;verticalAlign=middle;resizable=0;points=[];" vertex="1" connectable="0" parent="nFlIX1VMYEds2hBwtuZr-10">
          <mxGeometry x="-0.0036" relative="1" as="geometry">
            <mxPoint x="1" y="2" as="offset" />
          </mxGeometry>
        </mxCell>
        <mxCell id="nFlIX1VMYEds2hBwtuZr-12" value="dispatch" style="html=1;verticalAlign=middle;endArrow=block;curved=0;rounded=0;exitX=0.5;exitY=1;exitDx=0;exitDy=0;horizontal=0;" edge="1" parent="1" source="nFlIX1VMYEds2hBwtuZr-3">
          <mxGeometry width="80" relative="1" as="geometry">
            <mxPoint x="700" y="320" as="sourcePoint" />
            <mxPoint x="710" y="590" as="targetPoint" />
            <Array as="points">
              <mxPoint x="710" y="490" />
            </Array>
          </mxGeometry>
        </mxCell>
        <mxCell id="nFlIX1VMYEds2hBwtuZr-13" value="&lt;span style=&quot;font-size: 16px;&quot;&gt;&lt;b&gt;Inactivity Timeout&lt;/b&gt;&lt;/span&gt;" style="edgeLabel;html=1;align=center;verticalAlign=middle;resizable=0;points=[];rotation=90;" vertex="1" connectable="0" parent="nFlIX1VMYEds2hBwtuZr-12">
          <mxGeometry x="0.0629" y="-4" relative="1" as="geometry">
            <mxPoint x="4" y="-35" as="offset" />
          </mxGeometry>
        </mxCell>
        <mxCell id="nFlIX1VMYEds2hBwtuZr-14" value="&lt;font style=&quot;font-size: 15px;&quot;&gt;&lt;b&gt;Recipient Views Message&lt;/b&gt;&lt;/font&gt;" style="html=1;verticalAlign=bottom;endArrow=block;rounded=0;edgeStyle=orthogonalEdgeStyle;horizontal=1;entryX=1;entryY=0.25;entryDx=0;entryDy=0;" edge="1" parent="1" target="nFlIX1VMYEds2hBwtuZr-4">
          <mxGeometry x="0.1577" y="10" width="80" relative="1" as="geometry">
            <mxPoint x="620" y="638" as="sourcePoint" />
            <mxPoint x="300" y="470" as="targetPoint" />
            <Array as="points">
              <mxPoint x="600" y="638" />
              <mxPoint x="600" y="500" />
              <mxPoint x="330" y="500" />
              <mxPoint x="330" y="505" />
            </Array>
            <mxPoint as="offset" />
          </mxGeometry>
        </mxCell>
        <mxCell id="nFlIX1VMYEds2hBwtuZr-25" value="&lt;font style=&quot;font-size: 13px;&quot;&gt;&lt;b&gt;Sender Deletes Message&lt;/b&gt;&lt;/font&gt;" style="html=1;verticalAlign=bottom;endArrow=block;rounded=0;exitX=0.352;exitY=0.99;exitDx=0;exitDy=0;exitPerimeter=0;entryX=0;entryY=0.5;entryDx=0;entryDy=0;edgeStyle=orthogonalEdgeStyle;horizontal=0;" edge="1" parent="1" source="nFlIX1VMYEds2hBwtuZr-7">
          <mxGeometry x="-0.2505" y="8" width="80" relative="1" as="geometry">
            <mxPoint x="180" y="560" as="sourcePoint" />
            <mxPoint x="270" y="680" as="targetPoint" />
            <Array as="points">
              <mxPoint x="212" y="680" />
            </Array>
            <mxPoint as="offset" />
          </mxGeometry>
        </mxCell>
        <mxCell id="nFlIX1VMYEds2hBwtuZr-26" value="" style="endArrow=classic;html=1;rounded=0;edgeStyle=orthogonalEdgeStyle;" edge="1" parent="1">
          <mxGeometry width="50" height="50" relative="1" as="geometry">
            <mxPoint x="230" y="230" as="sourcePoint" />
            <mxPoint x="420" y="770" as="targetPoint" />
            <Array as="points">
              <mxPoint x="230" y="200" />
              <mxPoint x="30" y="200" />
              <mxPoint x="30" y="720" />
              <mxPoint x="390" y="720" />
            </Array>
          </mxGeometry>
        </mxCell>
        <mxCell id="nFlIX1VMYEds2hBwtuZr-29" value="&lt;font style=&quot;font-size: 14px;&quot;&gt;&lt;b&gt;User Becomes Active&lt;/b&gt;&lt;/font&gt;" style="html=1;verticalAlign=bottom;endArrow=block;rounded=0;exitX=1;exitY=0.5;exitDx=0;exitDy=0;entryX=1;entryY=0.5;entryDx=0;entryDy=0;edgeStyle=orthogonalEdgeStyle;horizontal=0;" edge="1" parent="1" source="nFlIX1VMYEds2hBwtuZr-8" target="nFlIX1VMYEds2hBwtuZr-3">
          <mxGeometry y="-10" width="80" relative="1" as="geometry">
            <mxPoint x="730" y="480" as="sourcePoint" />
            <mxPoint x="810" y="480" as="targetPoint" />
            <mxPoint as="offset" />
          </mxGeometry>
        </mxCell>
        <mxCell id="nFlIX1VMYEds2hBwtuZr-30" value="" style="endArrow=classic;html=1;rounded=0;entryX=0.892;entryY=-0.027;entryDx=0;entryDy=0;exitX=0.25;exitY=1;exitDx=0;exitDy=0;edgeStyle=orthogonalEdgeStyle;entryPerimeter=0;" edge="1" parent="1" source="nFlIX1VMYEds2hBwtuZr-3" target="nFlIX1VMYEds2hBwtuZr-4">
          <mxGeometry width="50" height="50" relative="1" as="geometry">
            <mxPoint x="430" y="320" as="sourcePoint" />
            <mxPoint x="520" y="435" as="targetPoint" />
            <Array as="points">
              <mxPoint x="680" y="380" />
              <mxPoint x="287" y="380" />
            </Array>
          </mxGeometry>
        </mxCell>
        <mxCell id="nFlIX1VMYEds2hBwtuZr-31" value="&lt;font style=&quot;font-size: 14px;&quot;&gt;&lt;b&gt;User Starts Typing&lt;/b&gt;&lt;/font&gt;" style="edgeLabel;html=1;align=center;verticalAlign=middle;resizable=0;points=[];" vertex="1" connectable="0" parent="nFlIX1VMYEds2hBwtuZr-30">
          <mxGeometry x="-0.0098" y="2" relative="1" as="geometry">
            <mxPoint as="offset" />
          </mxGeometry>
        </mxCell>
        <mxCell id="nFlIX1VMYEds2hBwtuZr-33" value="" style="endArrow=classic;html=1;rounded=0;entryX=0.942;entryY=0.02;entryDx=0;entryDy=0;exitX=0;exitY=0.25;exitDx=0;exitDy=0;edgeStyle=orthogonalEdgeStyle;entryPerimeter=0;" edge="1" parent="1" source="nFlIX1VMYEds2hBwtuZr-3" target="nFlIX1VMYEds2hBwtuZr-5">
          <mxGeometry width="50" height="50" relative="1" as="geometry">
            <mxPoint x="550" y="202.5" as="sourcePoint" />
            <mxPoint x="640" y="317.5" as="targetPoint" />
            <Array as="points">
              <mxPoint x="650" y="180" />
              <mxPoint x="360" y="180" />
              <mxPoint x="360" y="200" />
              <mxPoint x="323" y="200" />
            </Array>
          </mxGeometry>
        </mxCell>
        <mxCell id="nFlIX1VMYEds2hBwtuZr-37" value="&lt;font style=&quot;font-size: 14px;&quot;&gt;&lt;b&gt;User Logs Out / App Closed&lt;/b&gt;&lt;/font&gt;" style="edgeLabel;html=1;align=center;verticalAlign=middle;resizable=0;points=[];" vertex="1" connectable="0" parent="nFlIX1VMYEds2hBwtuZr-33">
          <mxGeometry x="-0.0944" y="1" relative="1" as="geometry">
            <mxPoint as="offset" />
          </mxGeometry>
        </mxCell>
        <mxCell id="nFlIX1VMYEds2hBwtuZr-34" value="" style="endArrow=classic;html=1;rounded=0;entryX=0.122;entryY=1.04;entryDx=0;entryDy=0;exitX=0.5;exitY=0;exitDx=0;exitDy=0;edgeStyle=orthogonalEdgeStyle;entryPerimeter=0;" edge="1" parent="1" source="nFlIX1VMYEds2hBwtuZr-4" target="nFlIX1VMYEds2hBwtuZr-3">
          <mxGeometry width="50" height="50" relative="1" as="geometry">
            <mxPoint x="230" y="370" as="sourcePoint" />
            <mxPoint x="320" y="485" as="targetPoint" />
            <Array as="points">
              <mxPoint x="240" y="350" />
              <mxPoint x="665" y="350" />
            </Array>
          </mxGeometry>
        </mxCell>
        <mxCell id="nFlIX1VMYEds2hBwtuZr-35" value="&lt;span style=&quot;font-size: 14px;&quot;&gt;&lt;b&gt;User Stops Typing / Sends Message&lt;/b&gt;&lt;/span&gt;" style="edgeLabel;html=1;align=center;verticalAlign=middle;resizable=0;points=[];" vertex="1" connectable="0" parent="nFlIX1VMYEds2hBwtuZr-34">
          <mxGeometry x="0.0065" y="3" relative="1" as="geometry">
            <mxPoint as="offset" />
          </mxGeometry>
        </mxCell>
        <mxCell id="nFlIX1VMYEds2hBwtuZr-38" value="" style="html=1;verticalAlign=bottom;endArrow=block;rounded=0;entryX=0;entryY=0.75;entryDx=0;entryDy=0;exitX=0.5;exitY=1;exitDx=0;exitDy=0;edgeStyle=orthogonalEdgeStyle;" edge="1" parent="1" source="nFlIX1VMYEds2hBwtuZr-8" target="nFlIX1VMYEds2hBwtuZr-5">
          <mxGeometry width="80" relative="1" as="geometry">
            <mxPoint x="460" y="590" as="sourcePoint" />
            <mxPoint x="200" y="550" as="targetPoint" />
            <Array as="points">
              <mxPoint x="680" y="660" />
              <mxPoint x="120" y="660" />
              <mxPoint x="120" y="275" />
            </Array>
          </mxGeometry>
        </mxCell>
        <mxCell id="nFlIX1VMYEds2hBwtuZr-39" value="&lt;font style=&quot;font-size: 13px;&quot;&gt;&lt;b&gt;User Logs Out / App Closed&lt;/b&gt;&lt;/font&gt;" style="edgeLabel;html=1;align=center;verticalAlign=middle;resizable=0;points=[];" vertex="1" connectable="0" parent="nFlIX1VMYEds2hBwtuZr-38">
          <mxGeometry x="-0.4553" y="-3" relative="1" as="geometry">
            <mxPoint as="offset" />
          </mxGeometry>
        </mxCell>
        <mxCell id="nFlIX1VMYEds2hBwtuZr-43" value="" style="endArrow=classic;html=1;rounded=0;exitX=0.25;exitY=1;exitDx=0;exitDy=0;edgeStyle=orthogonalEdgeStyle;horizontal=0;" edge="1" parent="1">
          <mxGeometry width="50" height="50" relative="1" as="geometry">
            <mxPoint x="180" y="520" as="sourcePoint" />
            <mxPoint x="220" y="290" as="targetPoint" />
            <Array as="points">
              <mxPoint x="180" y="521" />
              <mxPoint x="170" y="521" />
              <mxPoint x="170" y="310" />
              <mxPoint x="220" y="310" />
            </Array>
          </mxGeometry>
        </mxCell>
        <mxCell id="nFlIX1VMYEds2hBwtuZr-44" value="&lt;font style=&quot;font-size: 14px;&quot;&gt;&lt;b&gt;Connection Lost&lt;/b&gt;&lt;/font&gt;" style="edgeLabel;html=1;align=center;verticalAlign=middle;resizable=0;points=[];rotation=270;" vertex="1" connectable="0" parent="nFlIX1VMYEds2hBwtuZr-43">
          <mxGeometry x="-0.1493" y="5" relative="1" as="geometry">
            <mxPoint x="5" as="offset" />
          </mxGeometry>
        </mxCell>
        <mxCell id="nFlIX1VMYEds2hBwtuZr-45" value="" style="endArrow=classic;html=1;rounded=0;edgeStyle=orthogonalEdgeStyle;exitX=0.85;exitY=1.007;exitDx=0;exitDy=0;exitPerimeter=0;entryX=0;entryY=0.25;entryDx=0;entryDy=0;" edge="1" parent="1" source="nFlIX1VMYEds2hBwtuZr-8" target="nFlIX1VMYEds2hBwtuZr-5">
          <mxGeometry width="50" height="50" relative="1" as="geometry">
            <mxPoint x="710" y="660" as="sourcePoint" />
            <mxPoint x="200" y="250" as="targetPoint" />
            <Array as="points">
              <mxPoint x="722" y="690" />
              <mxPoint x="70" y="690" />
              <mxPoint x="70" y="245" />
            </Array>
          </mxGeometry>
        </mxCell>
        <mxCell id="nFlIX1VMYEds2hBwtuZr-46" value="Text" style="edgeLabel;html=1;align=center;verticalAlign=middle;resizable=0;points=[];" vertex="1" connectable="0" parent="nFlIX1VMYEds2hBwtuZr-45">
          <mxGeometry x="-0.4313" y="-1" relative="1" as="geometry">
            <mxPoint as="offset" />
          </mxGeometry>
        </mxCell>
        <mxCell id="nFlIX1VMYEds2hBwtuZr-49" value="&lt;b style=&quot;font-size: 14px;&quot;&gt;Connection Lost&lt;/b&gt;" style="edgeLabel;html=1;align=center;verticalAlign=middle;resizable=0;points=[];" vertex="1" connectable="0" parent="nFlIX1VMYEds2hBwtuZr-45">
          <mxGeometry x="-0.436" y="-3" relative="1" as="geometry">
            <mxPoint as="offset" />
          </mxGeometry>
        </mxCell>
        <mxCell id="nFlIX1VMYEds2hBwtuZr-50" value="" style="endArrow=classic;html=1;rounded=0;entryX=0;entryY=0.5;entryDx=0;entryDy=0;edgeStyle=orthogonalEdgeStyle;exitX=0.56;exitY=-0.029;exitDx=0;exitDy=0;exitPerimeter=0;" edge="1" parent="1" source="nFlIX1VMYEds2hBwtuZr-3">
          <mxGeometry width="50" height="50" relative="1" as="geometry">
            <mxPoint x="710" y="130" as="sourcePoint" />
            <mxPoint x="300" y="235" as="targetPoint" />
            <Array as="points">
              <mxPoint x="717" y="130" />
              <mxPoint x="300" y="130" />
            </Array>
          </mxGeometry>
        </mxCell>
        <mxCell id="nFlIX1VMYEds2hBwtuZr-51" value="Text" style="edgeLabel;html=1;align=center;verticalAlign=middle;resizable=0;points=[];" vertex="1" connectable="0" parent="nFlIX1VMYEds2hBwtuZr-50">
          <mxGeometry x="-0.0638" y="-1" relative="1" as="geometry">
            <mxPoint as="offset" />
          </mxGeometry>
        </mxCell>
        <mxCell id="nFlIX1VMYEds2hBwtuZr-52" value="&lt;b style=&quot;font-size: 14px;&quot;&gt;Connection Lost&lt;/b&gt;" style="edgeLabel;html=1;align=center;verticalAlign=middle;resizable=0;points=[];" vertex="1" connectable="0" parent="nFlIX1VMYEds2hBwtuZr-50">
          <mxGeometry x="-0.0776" y="-1" relative="1" as="geometry">
            <mxPoint as="offset" />
          </mxGeometry>
        </mxCell>
      </root>
    </mxGraphModel>
  </diagram>
  <diagram id="BSC05GRvkhKcSeGL_OR_" name="Page-3">
    <mxGraphModel dx="1683" dy="839" grid="1" gridSize="10" guides="1" tooltips="1" connect="1" arrows="1" fold="1" page="1" pageScale="1" pageWidth="827" pageHeight="1169" math="0" shadow="0">
      <root>
        <mxCell id="0" />
        <mxCell id="1" parent="0" />
        <mxCell id="t4162dhBwt92UcGFu5Kr-1" value="" style="ellipse;html=1;shape=endState;fillColor=#000000;strokeColor=#ff0000;" vertex="1" parent="1">
          <mxGeometry x="390" y="810" width="30" height="30" as="geometry" />
        </mxCell>
        <mxCell id="t4162dhBwt92UcGFu5Kr-2" value="" style="ellipse;html=1;shape=endState;fillColor=#000000;strokeColor=#ff0000;" vertex="1" parent="1">
          <mxGeometry x="120" width="30" height="30" as="geometry" />
        </mxCell>
        <mxCell id="t4162dhBwt92UcGFu5Kr-3" value="&lt;span style=&quot;font-size: 20px;&quot;&gt;Sent&lt;/span&gt;" style="rounded=1;whiteSpace=wrap;html=1;fillColor=#fff2cc;strokeColor=#d6b656;gradientColor=#ffd966;" vertex="1" parent="1">
          <mxGeometry x="650" y="200" width="120" height="60" as="geometry" />
        </mxCell>
        <mxCell id="t4162dhBwt92UcGFu5Kr-4" value="&lt;span style=&quot;font-size: 20px;&quot;&gt;Awaiting Input&lt;/span&gt;" style="rounded=1;whiteSpace=wrap;html=1;fillColor=#fff2cc;strokeColor=#d6b656;gradientColor=#ffd966;" vertex="1" parent="1">
          <mxGeometry x="510" y="410" width="150" height="60" as="geometry" />
        </mxCell>
        <mxCell id="t4162dhBwt92UcGFu5Kr-5" value="&lt;span style=&quot;font-size: 20px;&quot;&gt;Generated&lt;/span&gt;" style="rounded=1;whiteSpace=wrap;html=1;fillColor=#fff2cc;strokeColor=#d6b656;gradientColor=#ffd966;" vertex="1" parent="1">
          <mxGeometry x="310" y="220" width="120" height="60" as="geometry" />
        </mxCell>
        <mxCell id="t4162dhBwt92UcGFu5Kr-6" value="&lt;span style=&quot;font-size: 20px;&quot;&gt;Failed&lt;/span&gt;" style="rounded=1;whiteSpace=wrap;html=1;fillColor=#fff2cc;strokeColor=#d6b656;gradientColor=#ffd966;" vertex="1" parent="1">
          <mxGeometry x="270" y="650" width="120" height="60" as="geometry" />
        </mxCell>
        <mxCell id="t4162dhBwt92UcGFu5Kr-7" value="&lt;span style=&quot;font-size: 20px;&quot;&gt;Expired&lt;/span&gt;" style="rounded=1;whiteSpace=wrap;html=1;fillColor=#fff2cc;strokeColor=#d6b656;gradientColor=#ffd966;" vertex="1" parent="1">
          <mxGeometry x="230" y="440" width="120" height="60" as="geometry" />
        </mxCell>
        <mxCell id="t4162dhBwt92UcGFu5Kr-8" value="&lt;span style=&quot;font-size: 20px;&quot;&gt;Verified&lt;/span&gt;" style="rounded=1;whiteSpace=wrap;html=1;fillColor=#fff2cc;strokeColor=#d6b656;gradientColor=#ffd966;" vertex="1" parent="1">
          <mxGeometry x="630" y="680" width="120" height="60" as="geometry" />
        </mxCell>
        <mxCell id="t4162dhBwt92UcGFu5Kr-9" value="" style="endArrow=classic;html=1;rounded=0;exitX=0.5;exitY=1;exitDx=0;exitDy=0;horizontal=0;edgeStyle=orthogonalEdgeStyle;" edge="1" parent="1" source="t4162dhBwt92UcGFu5Kr-2" target="t4162dhBwt92UcGFu5Kr-5">
          <mxGeometry width="50" height="50" relative="1" as="geometry">
            <mxPoint x="530" y="450" as="sourcePoint" />
            <mxPoint x="580" y="400" as="targetPoint" />
            <Array as="points">
              <mxPoint x="460" y="30" />
              <mxPoint x="460" y="200" />
              <mxPoint x="370" y="200" />
            </Array>
          </mxGeometry>
        </mxCell>
        <mxCell id="t4162dhBwt92UcGFu5Kr-28" value="&lt;b style=&quot;&quot;&gt;&lt;font style=&quot;font-size: 15px;&quot;&gt;OTP Requested by User&lt;/font&gt;&lt;/b&gt;" style="edgeLabel;html=1;align=center;verticalAlign=middle;resizable=0;points=[];rotation=0;" vertex="1" connectable="0" parent="t4162dhBwt92UcGFu5Kr-9">
          <mxGeometry x="0.0613" y="3" relative="1" as="geometry">
            <mxPoint x="-106" y="3" as="offset" />
          </mxGeometry>
        </mxCell>
        <mxCell id="t4162dhBwt92UcGFu5Kr-10" value="" style="endArrow=classic;html=1;rounded=0;entryX=0;entryY=0.75;entryDx=0;entryDy=0;" edge="1" parent="1" target="t4162dhBwt92UcGFu5Kr-3">
          <mxGeometry width="50" height="50" relative="1" as="geometry">
            <mxPoint x="430" y="250" as="sourcePoint" />
            <mxPoint x="480" y="200" as="targetPoint" />
          </mxGeometry>
        </mxCell>
        <mxCell id="t4162dhBwt92UcGFu5Kr-11" value="&lt;b style=&quot;&quot;&gt;&lt;font style=&quot;font-size: 15px;&quot;&gt;OTP Dispatched to User&lt;/font&gt;&lt;/b&gt;" style="edgeLabel;html=1;align=center;verticalAlign=middle;resizable=0;points=[];" vertex="1" connectable="0" parent="t4162dhBwt92UcGFu5Kr-10">
          <mxGeometry x="-0.0036" relative="1" as="geometry">
            <mxPoint x="1" y="2" as="offset" />
          </mxGeometry>
        </mxCell>
        <mxCell id="t4162dhBwt92UcGFu5Kr-12" value="dispatch" style="html=1;verticalAlign=middle;endArrow=block;rounded=0;exitX=1;exitY=0.25;exitDx=0;exitDy=0;horizontal=0;entryX=0.673;entryY=-0.013;entryDx=0;entryDy=0;entryPerimeter=0;edgeStyle=orthogonalEdgeStyle;" edge="1" parent="1" source="t4162dhBwt92UcGFu5Kr-4" target="t4162dhBwt92UcGFu5Kr-8">
          <mxGeometry width="80" relative="1" as="geometry">
            <mxPoint x="700" y="320" as="sourcePoint" />
            <mxPoint x="710" y="590" as="targetPoint" />
            <Array as="points">
              <mxPoint x="680" y="425" />
              <mxPoint x="680" y="420" />
              <mxPoint x="711" y="420" />
            </Array>
          </mxGeometry>
        </mxCell>
        <mxCell id="t4162dhBwt92UcGFu5Kr-13" value="&lt;span style=&quot;font-size: 16px;&quot;&gt;&lt;b&gt;User Enters Correct OTP&lt;/b&gt;&lt;/span&gt;" style="edgeLabel;html=1;align=center;verticalAlign=middle;resizable=0;points=[];rotation=90;" vertex="1" connectable="0" parent="t4162dhBwt92UcGFu5Kr-12">
          <mxGeometry x="0.0629" y="-4" relative="1" as="geometry">
            <mxPoint x="3" y="30" as="offset" />
          </mxGeometry>
        </mxCell>
        <mxCell id="t4162dhBwt92UcGFu5Kr-26" value="" style="endArrow=classic;html=1;rounded=0;exitX=0.62;exitY=0.964;exitDx=0;exitDy=0;edgeStyle=orthogonalEdgeStyle;exitPerimeter=0;entryX=1;entryY=0.5;entryDx=0;entryDy=0;" edge="1" parent="1" source="t4162dhBwt92UcGFu5Kr-8" target="t4162dhBwt92UcGFu5Kr-1">
          <mxGeometry width="50" height="50" relative="1" as="geometry">
            <mxPoint x="340" y="800" as="sourcePoint" />
            <mxPoint x="440" y="825" as="targetPoint" />
            <Array as="points">
              <mxPoint x="704" y="770" />
              <mxPoint x="470" y="770" />
              <mxPoint x="470" y="825" />
            </Array>
          </mxGeometry>
        </mxCell>
        <mxCell id="t4162dhBwt92UcGFu5Kr-31" value="" style="endArrow=classic;html=1;rounded=0;entryX=0.2;entryY=0;entryDx=0;entryDy=0;exitX=0.25;exitY=1;exitDx=0;exitDy=0;edgeStyle=orthogonalEdgeStyle;entryPerimeter=0;" edge="1" parent="1" source="t4162dhBwt92UcGFu5Kr-3" target="t4162dhBwt92UcGFu5Kr-4">
          <mxGeometry width="50" height="50" relative="1" as="geometry">
            <mxPoint x="310" y="720" as="sourcePoint" />
            <mxPoint x="400" y="835" as="targetPoint" />
          </mxGeometry>
        </mxCell>
        <mxCell id="t4162dhBwt92UcGFu5Kr-32" value="&lt;font size=&quot;1&quot; style=&quot;&quot;&gt;&lt;b style=&quot;font-size: 14px;&quot;&gt;User Awaits Input&lt;/b&gt;&lt;/font&gt;" style="edgeLabel;html=1;align=center;verticalAlign=middle;resizable=0;points=[];" vertex="1" connectable="0" parent="t4162dhBwt92UcGFu5Kr-31">
          <mxGeometry x="-0.0143" y="1" relative="1" as="geometry">
            <mxPoint as="offset" />
          </mxGeometry>
        </mxCell>
        <mxCell id="t4162dhBwt92UcGFu5Kr-33" value="" style="endArrow=classic;html=1;rounded=0;entryX=0.147;entryY=-0.02;entryDx=0;entryDy=0;exitX=0.064;exitY=-0.033;exitDx=0;exitDy=0;edgeStyle=orthogonalEdgeStyle;exitPerimeter=0;entryPerimeter=0;" edge="1" parent="1" source="t4162dhBwt92UcGFu5Kr-4" target="t4162dhBwt92UcGFu5Kr-7">
          <mxGeometry width="50" height="50" relative="1" as="geometry">
            <mxPoint x="310" y="720" as="sourcePoint" />
            <mxPoint x="400" y="835" as="targetPoint" />
            <Array as="points">
              <mxPoint x="520" y="300" />
              <mxPoint x="248" y="300" />
            </Array>
          </mxGeometry>
        </mxCell>
        <mxCell id="t4162dhBwt92UcGFu5Kr-34" value="Text" style="edgeLabel;html=1;align=center;verticalAlign=middle;resizable=0;points=[];" vertex="1" connectable="0" parent="t4162dhBwt92UcGFu5Kr-33">
          <mxGeometry x="-0.1112" relative="1" as="geometry">
            <mxPoint as="offset" />
          </mxGeometry>
        </mxCell>
        <mxCell id="t4162dhBwt92UcGFu5Kr-35" value="&lt;b style=&quot;&quot;&gt;&lt;font style=&quot;font-size: 15px;&quot;&gt;OTP Validity Timeout&lt;/font&gt;&lt;/b&gt;" style="edgeLabel;html=1;align=center;verticalAlign=middle;resizable=0;points=[];" vertex="1" connectable="0" parent="t4162dhBwt92UcGFu5Kr-33">
          <mxGeometry x="-0.1163" relative="1" as="geometry">
            <mxPoint as="offset" />
          </mxGeometry>
        </mxCell>
        <mxCell id="t4162dhBwt92UcGFu5Kr-36" value="" style="endArrow=classic;html=1;rounded=0;exitX=0;exitY=0.75;exitDx=0;exitDy=0;edgeStyle=orthogonalEdgeStyle;" edge="1" parent="1" source="t4162dhBwt92UcGFu5Kr-6">
          <mxGeometry width="50" height="50" relative="1" as="geometry">
            <mxPoint x="310" y="720" as="sourcePoint" />
            <mxPoint x="310" y="250" as="targetPoint" />
            <Array as="points">
              <mxPoint x="150" y="695" />
              <mxPoint x="150" y="250" />
              <mxPoint x="310" y="250" />
            </Array>
          </mxGeometry>
        </mxCell>
        <mxCell id="t4162dhBwt92UcGFu5Kr-37" value="&lt;b style=&quot;&quot;&gt;&lt;font style=&quot;font-size: 15px;&quot;&gt;User Requests New OTP&lt;/font&gt;&lt;/b&gt;" style="edgeLabel;html=1;align=center;verticalAlign=middle;resizable=0;points=[];rotation=270;" vertex="1" connectable="0" parent="t4162dhBwt92UcGFu5Kr-36">
          <mxGeometry x="-0.0684" relative="1" as="geometry">
            <mxPoint as="offset" />
          </mxGeometry>
        </mxCell>
        <mxCell id="t4162dhBwt92UcGFu5Kr-39" value="" style="endArrow=classic;html=1;rounded=0;entryX=0;entryY=0.75;entryDx=0;entryDy=0;exitX=0;exitY=0.75;exitDx=0;exitDy=0;edgeStyle=orthogonalEdgeStyle;" edge="1" parent="1" source="t4162dhBwt92UcGFu5Kr-7" target="t4162dhBwt92UcGFu5Kr-5">
          <mxGeometry width="50" height="50" relative="1" as="geometry">
            <mxPoint x="310" y="720" as="sourcePoint" />
            <mxPoint x="400" y="835" as="targetPoint" />
            <Array as="points">
              <mxPoint x="210" y="485" />
              <mxPoint x="210" y="265" />
            </Array>
          </mxGeometry>
        </mxCell>
        <mxCell id="t4162dhBwt92UcGFu5Kr-40" value="&lt;font style=&quot;font-size: 13px;&quot;&gt;&lt;b&gt;User Requests New OTP&lt;/b&gt;&lt;/font&gt;" style="edgeLabel;html=1;align=center;verticalAlign=middle;resizable=0;points=[];rotation=270;" vertex="1" connectable="0" parent="t4162dhBwt92UcGFu5Kr-39">
          <mxGeometry x="-0.2494" y="-2" relative="1" as="geometry">
            <mxPoint as="offset" />
          </mxGeometry>
        </mxCell>
        <mxCell id="t4162dhBwt92UcGFu5Kr-42" value="" style="html=1;verticalAlign=bottom;endArrow=block;rounded=0;entryX=0.613;entryY=-0.007;entryDx=0;entryDy=0;entryPerimeter=0;exitX=0.341;exitY=1.047;exitDx=0;exitDy=0;exitPerimeter=0;edgeStyle=orthogonalEdgeStyle;" edge="1" parent="1" source="t4162dhBwt92UcGFu5Kr-4" target="t4162dhBwt92UcGFu5Kr-6">
          <mxGeometry width="80" relative="1" as="geometry">
            <mxPoint x="400" y="584" as="sourcePoint" />
            <mxPoint x="480" y="584" as="targetPoint" />
            <Array as="points">
              <mxPoint x="561" y="530" />
              <mxPoint x="344" y="530" />
            </Array>
          </mxGeometry>
        </mxCell>
        <mxCell id="t4162dhBwt92UcGFu5Kr-43" value="&lt;b style=&quot;font-size: 14px;&quot;&gt;User Enters Incorrect OTP&lt;/b&gt;" style="edgeLabel;html=1;align=center;verticalAlign=middle;resizable=0;points=[];" vertex="1" connectable="0" parent="t4162dhBwt92UcGFu5Kr-42">
          <mxGeometry x="-0.1562" y="1" relative="1" as="geometry">
            <mxPoint as="offset" />
          </mxGeometry>
        </mxCell>
      </root>
    </mxGraphModel>
  </diagram>
</mxfile>
